<?xml version="1.0" encoding="utf-8"?>
<!-- Generator: Adobe Illustrator 23.0.5, SVG Export Plug-In . SVG Version: 6.00 Build 0)  -->
<svg version="1.1" id="Capa_1" xmlns="http://www.w3.org/2000/svg" xmlns:xlink="http://www.w3.org/1999/xlink" x="0px" y="0px"
	 viewBox="0 0 150 150" style="enable-background:new 0 0 150 150;" xml:space="preserve">
<style type="text/css">
	.st0{fill:#2A3837;}
</style>
<g>
	<path class="st0" d="M49.79,65.78c0.81-0.81,1.98-1.13,3.08-0.86c1.11,0.27,1.99,1.1,2.33,2.19l4.99,15.97l14.41-43.23
		c0.49-1.47,1.95-2.39,3.48-2.21c1.54,0.18,2.73,1.42,2.86,2.97l4.55,54.58l6.71-20.14c0.44-1.33,1.69-2.23,3.09-2.23h49.18
		c3.58-8.44,5.44-17.31,4.05-26.88c-2.27-15.63-10.92-26.57-25.55-32.36c-14.05-5.56-26.98-2.91-38.5,6.75
		c-3.39,2.84-6.66,5.84-10.18,8.95c-0.41-0.48-0.81-0.96-1.21-1.44c-6-7.38-13.16-13.25-22.5-15.7C30.27,6.81,8.73,19.32,2.89,39.77
		c-3.53,12.36-1.37,23.77,3.54,34.65h34.72L49.79,65.78z"/>
	<path class="st0" d="M86.66,112.32c-0.45,1.34-1.7,2.23-3.09,2.23c-0.13,0-0.26-0.01-0.39-0.02c-1.54-0.18-2.73-1.42-2.86-2.97
		l-4.55-54.58L63.19,94.72c-0.44,1.33-1.69,2.23-3.09,2.23c-0.01,0-0.02,0-0.03,0c-1.41-0.01-2.66-0.94-3.08-2.29l-6.4-20.46
		l-5.79,5.79c-0.61,0.61-1.44,0.95-2.31,0.95H9.71c0.26,0.48,0.53,0.95,0.8,1.43c0.44,0.76,4.8,7.37,5.08,7.8c-0.01,0-0.02,0-0.03,0
		c1.55,2.06,2.52,3.45,3.59,4.77c15.26,18.75,34.31,33.03,54.47,45.97c0.71,0.45,2.18,0.51,2.87,0.07
		c17.6-11.23,34.32-23.61,48.53-39.04c3.23-3.51,6.18-7.29,9.25-10.94c0,0,0.01,0,0.01,0c0,0,4.46-6.84,5.57-8.91
		c0.52-0.91,1.02-1.82,1.51-2.74H97.65L86.66,112.32z"/>
</g>
</svg>
