<?xml version="1.0" encoding="utf-8"?>
<!-- Generator: Adobe Illustrator 23.0.5, SVG Export Plug-In . SVG Version: 6.00 Build 0)  -->
<svg version="1.1" id="Capa_1" xmlns="http://www.w3.org/2000/svg" xmlns:xlink="http://www.w3.org/1999/xlink" x="0px" y="0px"
	 viewBox="0 0 481 91" style="enable-background:new 0 0 481 91;" xml:space="preserve">
<style type="text/css">
	.st0{fill:#00A99D;}
	.st1{fill:#2A3837;}
</style>
<g>
	<g>
		<g>
			<path class="st0" d="M26.54,37.31v12.15H16V16.42h19.98c8.21,0,12.5,4.01,12.5,9.49c0,4.26-2.47,6.8-5.7,7.91
				c1.78,0.76,4.82,2.35,4.82,7.95v1.79c0,1.88,0,4.29,0.46,5.9H37.37c-0.55-1.39-0.67-3.42-0.67-6.84v-1.11
				c0-3.07-0.98-4.2-5.14-4.2H26.54z M26.54,30.44h6.57c2.92,0,4.56-1.07,4.56-3.46c0-2.2-1.5-3.44-4.56-3.44h-6.57V30.44z"/>
			<path class="st0" d="M82.64,36.32H64.98v5.52h19.74l-1.23,7.63H54.4V16.42h29.18v7.65H64.98v4.61h17.66V36.32z"/>
		</g>
	</g>
	<g>
		<path class="st1" d="M208.7,69.82c-0.77,3.04-3.04,5.29-7.1,5.29c-5.32,0-7.96-3.98-7.96-8.95c0-4.78,2.67-9.1,8.07-9.1
			c4.25,0,6.5,2.44,7,5.37h-2.61c-0.58-1.81-1.78-3.23-4.49-3.23c-3.74,0-5.25,3.39-5.25,6.88c0,3.36,1.42,6.9,5.35,6.9
			c2.67,0,3.78-1.57,4.37-3.15H208.7z"/>
		<path class="st1" d="M228.34,66.79h-8.68v5.89h9.54l-0.33,2.21h-11.76V57.31h11.64v2.21h-9.08v5.06h8.68V66.79z"/>
		<path class="st1" d="M237.35,74.89V57.31h3.39c2.46,4.08,7.67,12.51,8.62,14.42h0.04c-0.17-2.18-0.16-5-0.16-7.87v-6.55h2.44
			v17.57h-3.19c-2.24-3.74-7.73-12.91-8.78-14.89h-0.04c0.13,1.91,0.14,5.01,0.14,8.18v6.72H237.35z"/>
		<path class="st1" d="M265.04,59.52h-5.61v-2.21h13.85v2.21h-5.61v15.36h-2.62V59.52z"/>
		<path class="st1" d="M283.39,67.28v7.61h-2.58V57.31h7.03c3.65,0,5.6,1.99,5.6,4.72c0,2.3-1.31,3.66-2.91,4.14
			c1.33,0.37,2.59,1.41,2.59,4.48v0.77c0,1.21-0.04,2.7,0.24,3.45h-2.52c-0.32-0.76-0.31-2.12-0.31-3.81v-0.35
			c0-2.39-0.66-3.44-3.76-3.44H283.39z M283.39,65.12h3.7c2.57,0,3.68-0.97,3.68-2.85c0-1.78-1.16-2.79-3.45-2.79h-3.93V65.12z"/>
		<path class="st1" d="M317.76,66.01c0,4.84-2.75,9.13-8.32,9.13c-5.24,0-8.12-4-8.12-9.04c0-5.04,2.99-9.04,8.34-9.04
			C314.63,57.06,317.76,60.75,317.76,66.01z M304.03,66.02c0,3.73,1.86,6.92,5.51,6.92c3.95,0,5.49-3.26,5.49-6.9
			c0-3.7-1.75-6.79-5.5-6.79C305.71,59.26,304.03,62.34,304.03,66.02z"/>
		<path class="st1" d="M352.78,67.57c0-3.21,0.04-6.54,0.11-8.41h-0.1c-0.77,2.99-3.4,10.21-5.36,15.73h-2.31
			c-1.48-4.56-4.21-12.67-4.99-15.77h-0.08c0.14,2.04,0.2,5.88,0.2,8.9v6.87h-2.44V57.31h3.89c1.88,5.29,4.14,12.08,4.73,14.39h0.04
			c0.42-1.81,3.12-9.23,5.07-14.39h3.77v17.57h-2.54V67.57z"/>
		<path class="st1" d="M376.26,66.79h-8.68v5.89h9.54l-0.33,2.21h-11.76V57.31h11.64v2.21h-9.08v5.06h8.68V66.79z M376.19,52.1
			l-4.37,3.49h-2.51l3.68-3.49H376.19z"/>
		<path class="st1" d="M385.28,57.31h6.41c4.97,0,8.31,3.37,8.31,8.6c0,5.18-3.25,8.97-8.41,8.97h-6.32V57.31z M387.88,72.7h3.53
			c3.99,0,5.87-2.88,5.87-6.75c0-3.36-1.72-6.46-5.86-6.46h-3.54V72.7z"/>
		<path class="st1" d="M411.26,57.31v17.57h-2.61V57.31H411.26z"/>
		<path class="st1" d="M434.98,69.82c-0.77,3.04-3.04,5.29-7.1,5.29c-5.32,0-7.96-3.98-7.96-8.95c0-4.78,2.67-9.1,8.07-9.1
			c4.25,0,6.5,2.44,7,5.37h-2.61c-0.58-1.81-1.79-3.23-4.49-3.23c-3.74,0-5.25,3.39-5.25,6.88c0,3.36,1.42,6.9,5.35,6.9
			c2.67,0,3.78-1.57,4.37-3.15H434.98z"/>
		<path class="st1" d="M459,66.01c0,4.84-2.75,9.13-8.32,9.13c-5.24,0-8.12-4-8.12-9.04c0-5.04,2.99-9.04,8.34-9.04
			C455.87,57.06,459,60.75,459,66.01z M445.28,66.02c0,3.73,1.86,6.92,5.51,6.92c3.95,0,5.49-3.26,5.49-6.9
			c0-3.7-1.75-6.79-5.5-6.79C446.95,59.26,445.28,62.34,445.28,66.02z"/>
	</g>
	<path class="st0" d="M147.84,37.94h-0.06c-0.95-5.62-3.06-13.83-5.21-21.35h-15.54v33.39h9.69V39.09c0-5.73-0.38-12.17-0.59-16.07
		h0.08c1.64,6.75,3.8,15.97,6.43,26.95h8.92c3.33-11.8,5.46-20.42,7.07-26.88h0.1c-0.24,3.92-0.34,10.33-0.34,15.63v11.25h10.58
		V16.59h-15.48C151.25,24.23,149.12,32.03,147.84,37.94z"/>
	<polygon class="st0" points="187.52,36.7 205.36,36.7 205.36,28.97 187.52,28.97 187.52,24.32 206.3,24.32 206.3,16.59 
		176.82,16.59 176.82,49.98 206.21,49.98 207.46,42.27 187.52,42.27 	"/>
	<path class="st1" d="M231.56,44.5c-0.17,0.52-0.65,0.86-1.19,0.86c-0.05,0-0.1,0-0.15-0.01c-0.59-0.07-1.05-0.55-1.1-1.14
		l-1.29-15.47l-3.46,10.37c-0.17,0.51-0.67,0.85-1.2,0.86c-0.54,0-1.02-0.36-1.18-0.88l-1.83-5.86l-1.47,1.47
		c-0.23,0.23-0.55,0.37-0.89,0.37h-5.14v14.91h16.81c10.07,0,17.33-6.11,18.17-15.4h-12.77L231.56,44.5z"/>
	<path class="st1" d="M219.85,29.99c0.31-0.31,0.76-0.44,1.18-0.33c0.43,0.1,0.77,0.42,0.9,0.84l1.29,4.13l4.16-12.48
		c0.19-0.56,0.75-0.92,1.34-0.85c0.59,0.07,1.05,0.55,1.1,1.14l1.29,15.47l1.66-4.98c0.17-0.51,0.65-0.86,1.19-0.86h13.73
		c-0.31-8.48-6.39-15.48-18.12-15.48h-16.91v15.97h4.62L219.85,29.99z"/>
	<path class="st1" d="M108.25,44.5c-0.17,0.52-0.65,0.86-1.19,0.86c-0.05,0-0.1,0-0.15-0.01c-0.59-0.07-1.05-0.55-1.1-1.14
		l-1.29-15.47l-3.46,10.37c-0.17,0.51-0.67,0.85-1.2,0.86c-0.54,0-1.02-0.36-1.18-0.88l-1.83-5.86l-1.47,1.47
		c-0.23,0.23-0.55,0.37-0.89,0.37h-5.14v14.91h16.81c10.07,0,17.33-6.11,18.17-15.4h-12.77L108.25,44.5z"/>
	<path class="st1" d="M96.54,29.99c0.31-0.31,0.76-0.44,1.18-0.33c0.43,0.1,0.77,0.42,0.9,0.84l1.29,4.13l4.16-12.48
		c0.19-0.56,0.75-0.92,1.34-0.85c0.59,0.07,1.05,0.55,1.1,1.14l1.29,15.47l1.66-4.98c0.17-0.51,0.65-0.86,1.19-0.86h13.73
		c-0.31-8.48-6.39-15.48-18.12-15.48H89.35v15.97h4.62L96.54,29.99z"/>
	<rect x="253.62" y="16.59" class="st0" width="10.86" height="33.39"/>
	<path class="st0" d="M288.13,28.46c-5.18-0.94-6.57-1.67-6.57-3.2c0-1.57,1.39-2.52,4.33-2.52c4.14,0,5.08,1.71,5.46,3.19h10.55
		c-0.43-4.94-4.89-10.07-15.99-10.07c-9.12,0-15.34,3.85-15.34,10.45c0,4.4,1.77,8.6,14.11,10.76c6.26,1.09,7.33,2.13,7.33,3.9
		c0,1.66-1.2,2.82-5.05,2.82c-4.35,0-6.07-1.66-6.77-3.87h-10.86c1,6.03,5.98,10.78,17.18,10.78c11.34,0,16.69-4.63,16.69-11
		C303.19,34.68,300.75,30.72,288.13,28.46z"/>
	<path class="st0" d="M318.19,16.59l-12.63,33.39h10.88l2.11-6.22h13.31l2.27,6.22h11.66l-13.46-33.39H318.19z M320.92,36.03
		c1.78-5.1,3.25-9.84,3.98-12.6h0.16c0.84,2.79,2.1,6.59,4.28,12.6H320.92z"/>
	<polygon class="st0" points="360.24,16.59 349.37,16.59 349.37,49.98 376.89,49.98 378.16,42.25 360.24,42.25 	"/>
	<path class="st0" d="M404.24,35.92c0,5.12-1.97,7.07-5.72,7.07c-3.58,0-6.13-1.76-6.13-7.07V16.59h-10.86v19.37
		c0,9.98,5.67,14.78,16.72,14.78c11.46,0,16.86-5.07,16.86-14.77V16.59h-10.86V35.92z"/>
	<path class="st1" d="M442.04,44.5c-0.17,0.52-0.65,0.86-1.19,0.86c-0.05,0-0.1,0-0.15-0.01c-0.59-0.07-1.05-0.55-1.1-1.14
		l-1.29-15.47l-3.46,10.37c-0.17,0.51-0.7,0.85-1.2,0.86c-0.54,0-1.02-0.36-1.18-0.88l-1.83-5.86l-1.47,1.47
		c-0.25,0.25-0.58,0.38-0.94,0.37l-5.71-0.25v15.16h16.81c10.07,0,17.33-6.11,18.17-15.4h-12.15L442.04,44.5z"/>
	<path class="st1" d="M430.33,29.99c0.31-0.31,0.76-0.44,1.18-0.33c0.43,0.1,0.77,0.42,0.9,0.84l1.29,4.13l4.16-12.48
		c0.19-0.56,0.75-0.92,1.34-0.85c0.59,0.07,1.05,0.55,1.1,1.14l1.29,15.47l1.66-4.98c0.17-0.51,0.65-0.86,1.19-0.86h13.11
		c-0.31-8.48-6.39-15.48-18.12-15.48h-16.91v15.72l5.27,0.23L430.33,29.99z"/>
</g>
</svg>
