<?xml version="1.0" encoding="utf-8"?>
<!-- Generator: Adobe Illustrator 23.0.5, SVG Export Plug-In . SVG Version: 6.00 Build 0)  -->
<svg version="1.1" id="Capa_1" xmlns="http://www.w3.org/2000/svg" xmlns:xlink="http://www.w3.org/1999/xlink" x="0px" y="0px"
	 viewBox="0 0 481 91" style="enable-background:new 0 0 481 91;" xml:space="preserve">
<style type="text/css">
	.st0{fill:#FFFFFF;}
	.st1{fill:#2A3837;}
</style>
<g>
	<g>
		<g>
			<path class="st0" d="M26.17,37.37v12.17H15.61V16.45h20.01c8.22,0,12.52,4.02,12.52,9.5c0,4.26-2.47,6.81-5.71,7.92
				c1.79,0.77,4.83,2.35,4.83,7.96v1.79c0,1.88,0,4.29,0.46,5.91h-10.7c-0.55-1.39-0.67-3.43-0.67-6.85v-1.11
				c0-3.08-0.98-4.21-5.15-4.21H26.17z M26.17,30.5h6.58c2.93,0,4.57-1.07,4.57-3.46c0-2.2-1.5-3.45-4.57-3.45h-6.58V30.5z"/>
			<path class="st0" d="M82.34,36.38H64.66v5.52h19.77l-1.24,7.64H54.06V16.45h29.22v7.66H64.66v4.61h17.68V36.38z"/>
		</g>
	</g>
	<g>
		<path class="st1" d="M208.57,69.93c-0.77,3.04-3.04,5.3-7.11,5.3c-5.32,0-7.97-3.98-7.97-8.96c0-4.79,2.67-9.11,8.08-9.11
			c4.25,0,6.5,2.44,7.01,5.38h-2.61c-0.58-1.81-1.79-3.24-4.5-3.24c-3.74,0-5.25,3.39-5.25,6.89c0,3.36,1.42,6.9,5.36,6.9
			c2.67,0,3.78-1.58,4.38-3.15H208.57z"/>
		<path class="st1" d="M228.23,66.89h-8.69v5.89h9.55L228.76,75h-11.77V57.41h11.65v2.21h-9.1v5.07h8.69V66.89z"/>
		<path class="st1" d="M237.26,75V57.41h3.4c2.46,4.08,7.68,12.52,8.63,14.44h0.04c-0.17-2.18-0.16-5.01-0.16-7.88v-6.56h2.44V75
			h-3.2c-2.24-3.75-7.74-12.93-8.79-14.91h-0.04c0.13,1.92,0.14,5.02,0.14,8.19V75H237.26z"/>
		<path class="st1" d="M264.98,59.62h-5.62v-2.21h13.86v2.21h-5.62V75h-2.63V59.62z"/>
		<path class="st1" d="M283.36,67.38V75h-2.58V57.41h7.04c3.66,0,5.61,1.99,5.61,4.73c0,2.3-1.31,3.67-2.92,4.14
			c1.33,0.37,2.59,1.41,2.59,4.49v0.78c0,1.21-0.04,2.71,0.24,3.46h-2.52c-0.32-0.76-0.31-2.12-0.31-3.81v-0.35
			c0-2.4-0.67-3.45-3.76-3.45H283.36z M283.36,65.22h3.71c2.58,0,3.68-0.97,3.68-2.85c0-1.79-1.17-2.8-3.45-2.8h-3.94V65.22z"/>
		<path class="st1" d="M317.76,66.11c0,4.85-2.76,9.14-8.33,9.14c-5.24,0-8.13-4-8.13-9.05c0-5.05,3-9.05,8.35-9.05
			C314.63,57.15,317.76,60.85,317.76,66.11z M304.02,66.13c0,3.73,1.86,6.93,5.52,6.93c3.95,0,5.5-3.27,5.5-6.91
			c0-3.7-1.75-6.8-5.5-6.8C305.7,59.35,304.02,62.43,304.02,66.13z"/>
		<path class="st1" d="M352.83,67.67c0-3.22,0.04-6.55,0.11-8.42h-0.1c-0.77,2.99-3.41,10.22-5.36,15.75h-2.31
			c-1.48-4.56-4.21-12.69-5-15.79h-0.09c0.14,2.04,0.2,5.89,0.2,8.91V75h-2.44V57.41h3.89c1.88,5.3,4.15,12.1,4.74,14.41h0.04
			c0.42-1.81,3.12-9.25,5.08-14.41h3.78V75h-2.54V67.67z"/>
		<path class="st1" d="M376.35,66.89h-8.69v5.89h9.55L376.88,75h-11.77V57.41h11.65v2.21h-9.1v5.07h8.69V66.89z M376.28,52.18
			l-4.37,3.49h-2.51l3.68-3.49H376.28z"/>
		<path class="st1" d="M385.38,57.41h6.42c4.98,0,8.32,3.37,8.32,8.61c0,5.19-3.26,8.98-8.42,8.98h-6.32V57.41z M387.99,72.81h3.53
			c4,0,5.87-2.88,5.87-6.75c0-3.36-1.72-6.46-5.86-6.46h-3.54V72.81z"/>
		<path class="st1" d="M411.39,57.41V75h-2.61V57.41H411.39z"/>
		<path class="st1" d="M435.14,69.93c-0.77,3.04-3.04,5.3-7.11,5.3c-5.32,0-7.97-3.98-7.97-8.96c0-4.79,2.67-9.11,8.08-9.11
			c4.25,0,6.5,2.44,7.01,5.38h-2.61c-0.58-1.81-1.79-3.24-4.5-3.24c-3.74,0-5.25,3.39-5.25,6.89c0,3.36,1.42,6.9,5.36,6.9
			c2.67,0,3.78-1.58,4.38-3.15H435.14z"/>
		<path class="st1" d="M459.2,66.11c0,4.85-2.76,9.14-8.33,9.14c-5.24,0-8.13-4-8.13-9.05c0-5.05,3-9.05,8.35-9.05
			C456.07,57.15,459.2,60.85,459.2,66.11z M445.46,66.13c0,3.73,1.86,6.93,5.52,6.93c3.95,0,5.5-3.27,5.5-6.91
			c0-3.7-1.75-6.8-5.5-6.8C447.13,59.35,445.46,62.43,445.46,66.13z"/>
	</g>
	<path class="st0" d="M147.63,38h-0.06c-0.95-5.63-3.07-13.84-5.22-21.38h-15.56v33.43h9.71v-10.9c0-5.74-0.38-12.19-0.59-16.09
		h0.08c1.64,6.76,3.81,15.99,6.44,26.98h8.93c3.34-11.82,5.47-20.45,7.08-26.92h0.1c-0.24,3.92-0.34,10.34-0.34,15.65v11.27h10.59
		V16.63h-15.5C151.04,24.28,148.9,32.09,147.63,38z"/>
	<polygon class="st0" points="187.35,36.76 205.22,36.76 205.22,29.02 187.35,29.02 187.35,24.36 206.16,24.36 206.16,16.63 
		176.64,16.63 176.64,50.06 206.08,50.06 207.32,42.34 187.35,42.34 	"/>
	<path class="st1" d="M231.46,44.57c-0.17,0.52-0.66,0.86-1.19,0.86c-0.05,0-0.1,0-0.15-0.01c-0.59-0.07-1.05-0.55-1.1-1.14
		l-1.29-15.49l-3.46,10.39c-0.17,0.52-0.67,0.85-1.2,0.86c-0.54,0-1.02-0.36-1.19-0.88l-1.83-5.87l-1.48,1.48
		c-0.24,0.24-0.55,0.37-0.89,0.37h-5.15v14.93h16.83c10.08,0,17.36-6.11,18.2-15.42h-12.79L231.46,44.57z"/>
	<path class="st1" d="M219.73,30.04c0.31-0.31,0.76-0.44,1.19-0.33c0.43,0.1,0.77,0.43,0.9,0.84l1.29,4.14l4.17-12.5
		c0.19-0.56,0.75-0.92,1.34-0.85c0.59,0.07,1.05,0.55,1.1,1.14l1.29,15.49l1.66-4.99c0.17-0.51,0.65-0.86,1.19-0.86h13.75
		c-0.31-8.49-6.4-15.5-18.15-15.5h-16.94v15.99h4.63L219.73,30.04z"/>
	<path class="st1" d="M107.98,44.57c-0.17,0.52-0.66,0.86-1.19,0.86c-0.05,0-0.1,0-0.15-0.01c-0.59-0.07-1.05-0.55-1.1-1.14
		l-1.29-15.49l-3.46,10.39c-0.17,0.52-0.67,0.85-1.2,0.86c-0.54,0-1.02-0.36-1.19-0.88l-1.83-5.87l-1.48,1.48
		c-0.24,0.24-0.55,0.37-0.89,0.37h-5.15v14.93h16.83c10.08,0,17.36-6.11,18.2-15.42h-12.79L107.98,44.57z"/>
	<path class="st1" d="M96.26,30.04c0.31-0.31,0.76-0.44,1.19-0.33c0.43,0.1,0.77,0.43,0.9,0.84l1.29,4.14l4.17-12.5
		c0.19-0.56,0.75-0.92,1.34-0.85c0.59,0.07,1.05,0.55,1.1,1.14l1.29,15.49l1.66-4.99c0.17-0.51,0.65-0.86,1.19-0.86h13.75
		c-0.31-8.49-6.4-15.5-18.15-15.5H89.06v15.99h4.63L96.26,30.04z"/>
	<rect x="253.55" y="16.63" class="st0" width="10.88" height="33.43"/>
	<path class="st0" d="M288.1,28.52c-5.19-0.94-6.58-1.67-6.58-3.21c0-1.57,1.39-2.52,4.34-2.52c4.15,0,5.09,1.71,5.47,3.2h10.56
		c-0.43-4.94-4.9-10.08-16.01-10.08c-9.13,0-15.36,3.86-15.36,10.47c0,4.4,1.78,8.62,14.12,10.78c6.27,1.09,7.34,2.13,7.34,3.9
		c0,1.67-1.2,2.83-5.06,2.83c-4.36,0-6.07-1.66-6.78-3.87h-10.88c1,6.04,5.99,10.79,17.2,10.79c11.35,0,16.72-4.64,16.72-11.02
		C303.18,34.74,300.73,30.78,288.1,28.52z"/>
	<path class="st0" d="M318.2,16.63l-12.64,33.43h10.9l2.11-6.23h13.32l2.27,6.23h11.67l-13.47-33.43H318.2z M320.94,36.09
		c1.78-5.11,3.26-9.85,3.99-12.62h0.16c0.84,2.8,2.1,6.6,4.28,12.62H320.94z"/>
	<polygon class="st0" points="360.31,16.63 349.42,16.63 349.42,50.06 376.98,50.06 378.25,42.32 360.31,42.32 	"/>
	<path class="st0" d="M404.37,35.98c0,5.13-1.97,7.08-5.73,7.08c-3.58,0-6.13-1.76-6.13-7.08V16.63h-10.88v19.39
		c0,9.99,5.68,14.8,16.74,14.8c11.48,0,16.88-5.08,16.88-14.79v-19.4h-10.88V35.98z"/>
	<path class="st1" d="M442.21,44.57c-0.17,0.52-0.66,0.86-1.19,0.86c-0.05,0-0.1,0-0.15-0.01c-0.59-0.07-1.05-0.55-1.1-1.14
		l-1.29-15.49l-3.46,10.39c-0.17,0.52-0.7,0.85-1.2,0.86c-0.54,0-1.02-0.36-1.19-0.88l-1.83-5.87l-1.48,1.48
		c-0.25,0.25-0.58,0.38-0.94,0.37l-5.72-0.25v15.18h16.83c10.08,0,17.36-6.11,18.2-15.42h-12.17L442.21,44.57z"/>
	<path class="st1" d="M430.49,30.04c0.31-0.31,0.76-0.44,1.19-0.33c0.43,0.1,0.77,0.43,0.9,0.84l1.29,4.14l4.17-12.5
		c0.19-0.56,0.75-0.92,1.34-0.85c0.59,0.07,1.05,0.55,1.1,1.14l1.29,15.49l1.66-4.99c0.17-0.51,0.65-0.86,1.19-0.86h13.13
		c-0.31-8.49-6.4-15.5-18.15-15.5h-16.94v15.74l5.27,0.23L430.49,30.04z"/>
</g>
</svg>
