<svg xmlns="http://www.w3.org/2000/svg" viewBox="0 0 528.35 62.93"><defs><style>.cls-1{fill:#6a9b9a;}.cls-2{fill:#ceb268;}</style></defs><g id="Capa_2" data-name="Capa 2"><g id="Capa_4" data-name="Capa 4"><path class="cls-1" d="M201.94,36.05H170.23V46h0l-.15,13.71H151.21V.31h52.41V14H170.23v8.27h31.71Z"/><path class="cls-1" d="M315.7,38.34h-.11c-1.7-10.1-5.5-24.83-9.37-38.34h-27.9V60h17.41V40.42c0-10.29-.69-21.87-1.05-28.86h.14c2.95,12.13,6.83,28.69,11.55,48.41h16c6-21.2,9.81-36.69,12.7-48.29h.18c-.43,7-.61,18.56-.61,28.07V60h19V0h-27.8C321.84,13.72,318,27.73,315.7,38.34Z"/><path class="cls-2" d="M469.22,50.12a2.27,2.27,0,0,1-2.14,1.54l-.27,0a2.25,2.25,0,0,1-2-2l-2.32-27.78-6.2,18.63A2.31,2.31,0,0,1,454.16,42,2.25,2.25,0,0,1,452,40.4l-3.29-10.52-2.65,2.64a2.21,2.21,0,0,1-1.59.66h-9.23V60h30.18c18.09,0,31.14-11,32.65-27.67h-23Z"/><path class="cls-2" d="M448.19,24.06a2.26,2.26,0,0,1,3.74.92l2.32,7.43L461.72,10a2.25,2.25,0,0,1,4.38.53l2.31,27.77,3-8.95a2.24,2.24,0,0,1,2.13-1.54h24.66C497.64,12.57,486.71,0,465.64,0H435.27V28.68h8.3Z"/><path class="cls-2" d="M113,50.45A2.24,2.24,0,0,1,110.89,52h-.23a2.35,2.35,0,0,1-2-2.17l-2.28-27.27a.08.08,0,0,0-.15,0l-6.09,18.26A2.31,2.31,0,0,1,98,42.31a2.23,2.23,0,0,1-2.13-1.57l-3.25-10.4a.08.08,0,0,0-.14,0l-2.52,2.53a2.36,2.36,0,0,1-1.65.68H75.73a.08.08,0,0,0-.08.08h0c1.19,14.22,11.63,24.12,26.7,26.7h3.49c18,0,31.08-10.93,32.63-27.57a.08.08,0,0,0-.08-.09H119a.08.08,0,0,0-.08,0Z"/><path class="cls-2" d="M92.19,24.4a2.24,2.24,0,0,1,2.13-.59,2.22,2.22,0,0,1,1.61,1.51l2.25,7.18a.08.08,0,0,0,.15,0l7.4-22.18a2.23,2.23,0,0,1,2.4-1.52,2.26,2.26,0,0,1,2,2l2.29,27.38a.08.08,0,0,0,.15,0l2.84-8.52a2.33,2.33,0,0,1,2.21-1.59h20.85a.09.09,0,0,0,.09-.09C138.53,12.6,127.42-.36,106,.33h-4.87c-15.45,1.59-23.19,11-25.51,25.52v3.09a.09.09,0,0,0,.08.08H87.54a.07.07,0,0,0,.06,0Z"/><rect class="cls-1" x="508.84" width="19.51" height="59.97"/><path class="cls-1" d="M33.79,23C24.48,21.28,22,20,22,17.22s2.5-4.53,7.78-4.53c7.43,0,9.13,3.06,9.81,5.73H58.51C57.74,9.55,49.72.33,29.79.33,13.4.33,2.24,7.25,2.24,19.11c0,7.89,3.19,15.45,25.34,19.33,11.24,2,13.16,3.82,13.16,7,0,3-2.15,5.07-9.07,5.07-7.82,0-10.9-3-12.16-6.94H0C1.79,54.4,10.74,62.93,30.85,62.93c20.37,0,30-8.32,30-19.76C60.84,34.14,56.45,27,33.79,23Z"/><polygon class="cls-1" points="390.17 36.11 422.21 36.11 422.21 22.23 390.17 22.23 390.17 13.88 423.91 13.88 423.91 0 370.96 0 370.96 59.97 423.75 59.97 425.99 46.12 390.17 46.12 390.17 36.11"/><polygon class="cls-1" points="232.72 13.88 266.45 13.88 266.45 0 213.5 0 232.72 13.88"/><polyline class="cls-1" points="213.5 13.88 232.72 13.88 213.5 0"/><polyline class="cls-1" points="247.84 13.88 232.72 13.88 232.72 60.3 247.84 60.3"/></g></g></svg>