<svg xmlns="http://www.w3.org/2000/svg" viewBox="0 0 1205.12 613.87"><defs><style>.cls-1,.cls-2{fill:none;}.cls-1,.cls-3,.cls-4{stroke:#f6f6f6;}.cls-1,.cls-2,.cls-3,.cls-4{stroke-miterlimit:10;}.cls-1,.cls-2,.cls-3{stroke-width:25px;}.cls-2{stroke:#ceb268;}.cls-3{fill:#0bab9f;}.cls-4{fill:#fff;}.cls-5{fill:#ceb268;}</style></defs><g id="Capa_2" data-name="Capa 2"><g id="Capa_4" data-name="Capa 4"><polyline class="cls-1" points="316.52 161.35 176.12 17.71 30.32 161.35 316.52 450.79 173.42 594.07 30.32 449.35"/><polyline class="cls-2" points="30.32 613.87 30.32 234.79 173.42 387.23 316.52 234.79 316.52 613.87"/><line class="cls-1" x1="152.98" y1="573.41" x2="8.86" y2="428.69"/><path class="cls-3" d="M230.72,404.19l-57.3-57.95Z" transform="translate(0 -40.17)"/><path class="cls-4" d="M412.92,250.28V266c0,19,3.93,29.54,14.24,29.54,10.58,0,13.32-14.52,13.32-31.08,0-27.4-4.08-35.9-23-57.48s-29.06-35.51-29.06-73.25c0-33.6,7-67.51,38.79-67.47,32.49,0,37.5,33.6,37.5,61.26v13.62H437.85V128.6c0-17.75-2.07-28.5-11.09-28.5-8.82,0-11.14,11.11-11.14,28,0,18,2.36,26.84,17.83,43.23,26.34,28.22,34.41,44.6,34.41,87.26,0,36.17-8.75,70.44-41.59,70.44-32.56,0-40.5-30.05-40.5-63.63V250.28Z" transform="translate(0 -40.17)"/><path class="cls-4" d="M568.8,138V257.08c0,48.86-14.31,72-44.13,72-28.61,0-41.49-23.69-41.49-71.28v-120c0-48.83,17-71.1,43.21-71.1C553.07,66.63,568.8,89,568.8,138Zm-58-3.85V262.41c0,21.19,5.28,31.14,15.07,31.14,10.55,0,15.27-9.28,15.27-31.7v-128c0-20.24-4.29-31.43-15.3-31.43C516.08,102.45,510.82,112.59,510.82,134.17Z" transform="translate(0 -40.17)"/><path class="cls-4" d="M588.9,70.35h68.57v36.5H616.05v67.07H655.5v36.5H616.05v114.9H588.9Z" transform="translate(0 -40.17)"/><path class="cls-4" d="M693.3,106.85H665V70.35h83.83v36.5H720.44V325.32H693.3Z" transform="translate(0 -40.17)"/><path class="cls-5" d="M555.82,542.24c0-51.07.56-114.68,1.46-149.12h-.45C549.92,445.27,533.3,567,520.29,654H476.55c-9.7-78.07-26.48-206.36-33.34-261.32h-.9c.9,35,2.3,103,2.3,154.72V654h-42V353.5h69.05c11.69,76.38,23.74,162,27.79,204.12h.45c4.9-42.63,21.18-132,33.21-204.12h66.73V654h-44Z" transform="translate(0 -40.17)"/><path class="cls-5" d="M752.63,516.75H686.57v94.66h76.14L756.84,654H640.21V353.5H756.28v43H686.57v77.61h66.06Z" transform="translate(0 -40.17)"/><path class="cls-5" d="M785,353.5h64.29c63.76,0,79.26,33,79.26,88.81V557.56c0,45.94-7.88,96.48-79.35,96.48H785Zm46.35,261.08h14.86c30.47,0,35.14-19.62,35.14-50.72V438.66c0-27.64-4.87-45.31-35.43-45.31H831.38Z" transform="translate(0 -40.17)"/><path class="cls-5" d="M1009.54,353.5V654H963.19V353.5Z" transform="translate(0 -40.17)"/><path class="cls-5" d="M1050.46,353.5H1096V489.26h.45c11.52-29.72,37.25-94.41,53.8-135.76h51.61l-54.74,116.78,58,183.76h-50.48L1115.4,518.71,1096,559.19V654h-45.56Z" transform="translate(0 -40.17)"/></g></g></svg>