<svg xmlns="http://www.w3.org/2000/svg" viewBox="0 0 776.93 611.81"><defs><style>.cls-1,.cls-2{fill:none;}.cls-1,.cls-3{stroke:#6a9b9a;}.cls-1,.cls-2,.cls-3{stroke-miterlimit:10;stroke-width:25px;}.cls-2{stroke:#ceb268;}.cls-3{fill:#0bab9f;}.cls-4{fill:#6a9b9a;}.cls-5{fill:#ceb268;}</style></defs><g id="Capa_2" data-name="Capa 2"><g id="Capa_4" data-name="Capa 4"><polyline class="cls-1" points="17.69 449.35 160.79 594.07 303.89 450.79 17.69 161.35 163.49 17.71 238.4 94.35 274.18 130.95 303.89 161.35"/><path class="cls-2" d="M160.79,437.41V663.84" transform="translate(0 -64.6)"/><line class="cls-2" x1="303.89" y1="382.79" x2="17.69" y2="382.79"/><path class="cls-3" d="M218.1,428.62l-57.31-57.95Z" transform="translate(0 -64.6)"/><polyline class="cls-2" points="303.89 79.79 160.79 232.23 17.69 79.79"/><line class="cls-1" x1="303.89" y1="161.79" x2="241.95" y2="97.98"/><path class="cls-4" d="M401.53,249.78v15.75c0,19,3.93,29.54,14.25,29.54,10.58,0,13.32-14.52,13.32-31.08,0-27.4-4.08-35.9-23-57.48S377.08,171,377.08,133.26c0-33.6,7-67.51,38.79-67.47,32.49,0,37.5,33.6,37.5,61.26v13.62H426.46V128.1c0-17.75-2.06-28.5-11.08-28.5-8.82,0-11.15,11.11-11.15,28,0,18,2.36,26.84,17.83,43.23,26.34,28.22,34.41,44.6,34.41,87.26,0,36.17-8.75,70.44-41.59,70.44-32.56,0-40.5-30.05-40.5-63.63V249.78Z" transform="translate(0 -64.6)"/><path class="cls-4" d="M557.41,137.52V256.58c0,48.86-14.31,72-44.13,72-28.6,0-41.49-23.69-41.49-71.28v-120c0-48.83,17-71.1,43.21-71.1C541.69,66.13,557.41,88.46,557.41,137.52Zm-58-3.85V261.92c0,21.18,5.28,31.13,15.06,31.13,10.55,0,15.27-9.28,15.27-31.7v-128c0-20.24-4.28-31.43-15.3-31.43C504.69,102,499.44,112.09,499.44,133.67Z" transform="translate(0 -64.6)"/><path class="cls-4" d="M577.52,69.85h68.56v36.5H604.66v67.07h39.45v36.5H604.66v114.9H577.52Z" transform="translate(0 -64.6)"/><path class="cls-4" d="M681.91,106.35H653.65V69.85h83.83v36.5H709.05V324.82H681.91Z" transform="translate(0 -64.6)"/><path class="cls-5" d="M419.54,663.84,373.26,363.3h44.07L431.4,485.57c4.59,40.48,10.31,83,12.68,117.57h.75c2.33-32.6,8.44-75.51,12.68-116.61L470.72,363.3H514.4L469.32,663.84Z" transform="translate(0 -64.6)"/><path class="cls-5" d="M631.54,526.55H573.39v94.66h67l-5.16,42.63H532.6V363.3H634.76v43H573.39v77.6h58.15Z" transform="translate(0 -64.6)"/><path class="cls-5" d="M693.41,406.32H650.94v-43h126v43H734.21V663.84h-40.8Z" transform="translate(0 -64.6)"/></g></g></svg>