<svg xmlns="http://www.w3.org/2000/svg" viewBox="0 0 769.7 613.87"><defs><style>.cls-1,.cls-2{fill:none;}.cls-1,.cls-3{stroke:#6a9b9a;}.cls-1,.cls-2,.cls-3{stroke-miterlimit:10;stroke-width:25px;}.cls-2{stroke:#ceb268;}.cls-3{fill:#0bab9f;}.cls-4{fill:#6a9b9a;}.cls-5{fill:#ceb268;}</style></defs><g id="Capa_2" data-name="Capa 2"><g id="Capa_4" data-name="Capa 4"><polyline class="cls-1" points="316.52 161.35 176.12 17.71 30.32 161.35 316.52 450.79 173.42 594.07 30.32 449.35"/><polyline class="cls-2" points="27.24 231.91 30.32 234.79 173.42 387.23 316.52 234.79 173.42 89.35 30.32 231.91 26.77 235.49"/><line class="cls-2" x1="30.32" y1="613.87" x2="30.32" y2="368.71"/><line class="cls-1" x1="152.98" y1="573.41" x2="8.86" y2="428.69"/><path class="cls-3" d="M230.72,419.51l-57.3-58Z" transform="translate(0 -55.48)"/><path class="cls-2" d="M30.32,426.59V282.35" transform="translate(0 -55.48)"/><path class="cls-4" d="M401.62,249.78v15.75c0,19,3.93,29.54,14.24,29.54,10.58,0,13.32-14.52,13.32-31.08,0-27.4-4.08-35.9-22.95-57.47S377.17,171,377.17,133.26c0-33.6,7-67.51,38.79-67.47,32.49,0,37.5,33.6,37.5,61.26v13.62H426.55V128.1c0-17.75-2.07-28.5-11.09-28.5-8.82,0-11.15,11.11-11.15,28,0,18,2.36,26.84,17.84,43.23,26.34,28.22,34.41,44.6,34.41,87.26,0,36.17-8.75,70.44-41.59,70.44-32.56,0-40.5-30.05-40.5-63.63V249.78Z" transform="translate(0 -55.48)"/><path class="cls-4" d="M557.5,137.52V256.58c0,48.86-14.31,72-44.13,72-28.61,0-41.49-23.69-41.49-71.28v-120c0-48.83,17-71.1,43.21-71.1C541.77,66.13,557.5,88.46,557.5,137.52Zm-58-3.85V261.92c0,21.18,5.28,31.13,15.07,31.13,10.55,0,15.27-9.28,15.27-31.7v-128c0-20.24-4.29-31.43-15.3-31.43C504.78,102,499.52,112.09,499.52,133.67Z" transform="translate(0 -55.48)"/><path class="cls-4" d="M577.6,69.85h68.57v36.5H604.75v67.07H644.2v36.5H604.75v114.9H577.6Z" transform="translate(0 -55.48)"/><path class="cls-4" d="M682,106.35H653.74V69.85h83.83v36.5H709.14V324.82H682Z" transform="translate(0 -55.48)"/><path class="cls-5" d="M388.47,368.82H446c41.06,0,62,23.57,62,76.72v17.71c0,49.6-15.24,82.55-64.22,82.55h-15.4V669.35H388.47Zm39.87,139.11h10.93c24.86,0,29.11-16.88,29.11-46.21V446.94c0-21.84-3.42-39.85-25.57-39.85H428.34Z" transform="translate(0 -55.48)"/><path class="cls-5" d="M627.63,532.07H570.8v94.66h65.5l-5,42.62H530.93V368.82h99.84v43h-60v77.6h56.83Z" transform="translate(0 -55.48)"/><path class="cls-5" d="M688.08,411.84h-41.5v-43H769.7v43H728V669.35H688.08Z" transform="translate(0 -55.48)"/></g></g></svg>