<svg xmlns="http://www.w3.org/2000/svg" viewBox="0 0 476.53 62.59"><defs><style>.cls-1{fill:#6a9b9a;}.cls-2{fill:#ceb268;}</style></defs><g id="Capa_2" data-name="Capa 2"><g id="Capa_4" data-name="Capa 4"><path class="cls-1" d="M201.94,35.74H170.23v9.91h0l-.15,13.7H151.21V0h52.41V13.73H170.23V22h31.71Z"/><path class="cls-2" d="M292.75,24.06a2.26,2.26,0,0,1,3.74.92l2.32,7.43L306.28,10a2.25,2.25,0,0,1,4.38.53L313,38.29l3-8.95a2.24,2.24,0,0,1,2.13-1.54h24.66C342.2,12.57,331.27,0,310.2,0H279.83V28.68h8.3Z"/><path class="cls-2" d="M113,52.74a2.23,2.23,0,0,1-2.13,1.54h-.23a2.34,2.34,0,0,1-2-2.17l-2.27-27.27a.08.08,0,0,0-.16,0l-6.09,18.25a2.31,2.31,0,0,1-2.15,1.54A2.25,2.25,0,0,1,95.79,43l-3.25-10.4a.07.07,0,0,0-.13,0l-2.53,2.53a2.36,2.36,0,0,1-1.65.68H75.68a.09.09,0,0,0-.08.08h0C76.79,50.11,87.23,60,102.3,62.59h3.49c18,0,31.08-10.93,32.63-27.57a.08.08,0,0,0-.08-.09H119a.08.08,0,0,0-.08.06Z"/><path class="cls-2" d="M92.19,24.09a2.24,2.24,0,0,1,2.13-.59A2.22,2.22,0,0,1,95.93,25l2.25,7.18a.08.08,0,0,0,.15,0L105.73,10a2.23,2.23,0,0,1,2.4-1.53,2.26,2.26,0,0,1,2,2l2.29,27.39a.08.08,0,0,0,.15,0l2.84-8.52a2.33,2.33,0,0,1,2.21-1.59h20.85a.09.09,0,0,0,.09-.09C138.53,12.29,127.42-.67,106,0h-4.87C85.66,1.61,77.92,11,75.6,25.54v3.09a.09.09,0,0,0,.08.08H87.54l.06,0Z"/><path class="cls-1" d="M33.79,22.64C24.48,21,22,19.65,22,16.88s2.5-4.53,7.78-4.53c7.43,0,9.13,3.07,9.81,5.74H58.51C57.74,9.22,49.72,0,29.79,0,13.4,0,2.24,6.92,2.24,18.77c0,7.9,3.19,15.46,25.34,19.33,11.24,2,13.16,3.83,13.16,7,0,3-2.15,5.07-9.07,5.07-7.82,0-10.9-3-12.16-7H0C1.79,54.07,10.74,62.59,30.85,62.59c20.37,0,30-8.32,30-19.76C60.84,33.81,56.45,26.7,33.79,22.64Z"/><polygon class="cls-1" points="376.17 36.11 408.21 36.11 408.21 22.23 376.17 22.23 376.17 13.88 409.91 13.88 409.91 0 356.96 0 356.96 59.97 409.75 59.97 411.99 46.12 376.17 46.12 376.17 36.11"/><polygon class="cls-1" points="232.72 13.88 266.45 13.88 266.45 0 213.5 0 232.72 13.88"/><polyline class="cls-1" points="213.5 13.88 232.72 13.88 213.5 0"/><polyline class="cls-1" points="249.03 13.88 229.52 13.88 229.52 60.3 249.03 60.3"/><path class="cls-2" d="M299.34,40.2l-5.42-10.53-2.49,2.65a2.85,2.85,0,0,1-1.85.66h-9.75V59.76l19.51-.15"/><polygon class="cls-1" points="442.79 13.88 476.53 13.88 476.53 0 423.57 0 442.79 13.88"/><polyline class="cls-1" points="423.57 13.88 442.79 13.88 423.57 0"/><polyline class="cls-1" points="459.11 13.88 439.6 13.88 439.6 60.3 459.11 60.3"/></g></g></svg>